<svg width="16" height="16" viewBox="0 0 16 16" fill="none" xmlns="http://www.w3.org/2000/svg">
<mask id="mask0_594_5936" style="mask-type:alpha" maskUnits="userSpaceOnUse" x="0" y="0" width="16" height="16">
<rect x="16" width="16" height="16" transform="rotate(90 16 0)" fill="#D9D9D9"/>
</mask>
<g mask="url(#mask0_594_5936)">
<path d="M8.00016 9.64999L12.9002 4.74999C13.0668 4.58333 13.2641 4.50277 13.4918 4.50833C13.7196 4.51388 13.9168 4.59999 14.0835 4.76666C14.2502 4.93333 14.3335 5.13055 14.3335 5.35833C14.3335 5.5861 14.2502 5.78333 14.0835 5.94999L8.95016 11.0667C8.81683 11.2 8.66683 11.3 8.50016 11.3667C8.3335 11.4333 8.16683 11.4667 8.00016 11.4667C7.8335 11.4667 7.66683 11.4333 7.50016 11.3667C7.3335 11.3 7.1835 11.2 7.05016 11.0667L1.91683 5.93332C1.75016 5.76666 1.66961 5.57221 1.67516 5.34999C1.68072 5.12777 1.76683 4.93332 1.9335 4.76666C2.10016 4.59999 2.29739 4.51666 2.52516 4.51666C2.75294 4.51666 2.95016 4.59999 3.11683 4.76666L8.00016 9.64999Z" fill="#535862"/>
</g>
</svg>
