<svg width="16" height="16" viewBox="0 0 16 16" fill="none" xmlns="http://www.w3.org/2000/svg">
<g id="add">
<mask id="mask0_459_15908" style="mask-type:alpha" maskUnits="userSpaceOnUse" x="0" y="0" width="16" height="16">
<rect id="Bounding box" width="16" height="16" fill="#D9D9D9"/>
</mask>
<g mask="url(#mask0_459_15908)">
<path id="add_2" d="M7.67957 8.98714H3.32059C3.13534 8.98714 2.98009 8.92444 2.85484 8.79905C2.72944 8.67366 2.66675 8.51833 2.66675 8.33307C2.66675 8.14767 2.72944 7.99242 2.85484 7.86732C2.98009 7.74207 3.13534 7.67945 3.32059 7.67945H7.67957V3.32047C7.67957 3.13522 7.74227 2.97996 7.86766 2.85472C7.99305 2.72932 8.14838 2.66663 8.33363 2.66663C8.51903 2.66663 8.67429 2.72932 8.79939 2.85472C8.92464 2.97996 8.98726 3.13522 8.98726 3.32047V7.67945H13.3462C13.5315 7.67945 13.6867 7.74214 13.812 7.86754C13.9374 7.99293 14.0001 8.14825 14.0001 8.33351C14.0001 8.51891 13.9374 8.67416 13.812 8.79927C13.6867 8.92451 13.5315 8.98714 13.3462 8.98714H8.98726V13.3461C8.98726 13.5314 8.92456 13.6866 8.79917 13.8119C8.67378 13.9373 8.51845 14 8.3332 14C8.14779 14 7.99254 13.9373 7.86744 13.8119C7.74219 13.6866 7.67957 13.5314 7.67957 13.3461V8.98714Z" fill="#535862"/>
</g>
</g>
</svg>
